<?xml version="1.0" encoding="utf-8"?>
<!-- Generator: Adobe Illustrator 19.0.0, SVG Export Plug-In . SVG Version: 6.00 Build 0)  -->
<svg version="1.1" id="Capa_1" xmlns="http://www.w3.org/2000/svg" xmlns:xlink="http://www.w3.org/1999/xlink" x="0px" y="0px"
	 viewBox="-413 291.6 14.6 14.6" style="enable-background:new -413 291.6 14.6 14.6;" xml:space="preserve">
<style type="text/css">
	.st0{fill:#0053A2;stroke:#FFFFFF;stroke-width:0.5;stroke-miterlimit:10;}
</style>
<path class="st0" d="M-402,293.6c0.4-0.4,0.4-1,0-1.4s-1-0.4-1.4,0l-4.3,4.3l-1.8-1.8c-0.4-0.4-1-0.4-1.4,0s-0.4,1,0,1.4l2.5,2.5
	c0.4,0.4,1,0.4,1.4,0C-407,298.6-402,293.6-402,293.6z M-399,297.6c0.4-0.4,0.4-1,0-1.4s-1-0.4-1.4,0l-7.3,7.3l-3.3-3.3
	c-0.4-0.4-1-0.4-1.4,0s-0.4,1,0,1.4l4,4c0.4,0.4,1,0.4,1.4,0L-399,297.6L-399,297.6z"/>
</svg>
