<?xml version="1.0" encoding="utf-8"?>
<!-- Generator: Adobe Illustrator 19.0.0, SVG Export Plug-In . SVG Version: 6.00 Build 0)  -->
<svg version="1.1" id="Capa_1" xmlns="http://www.w3.org/2000/svg" xmlns:xlink="http://www.w3.org/1999/xlink" x="0px" y="0px"
	 viewBox="-414.5 289.8 12.9 16.8" style="enable-background:new -414.5 289.8 12.9 16.8;" xml:space="preserve">
<style type="text/css">
	.st0{fill:url(#SVGID_1_);stroke:#FFFFFF;stroke-width:0.25;stroke-miterlimit:10;}
</style>
<linearGradient id="SVGID_1_" gradientUnits="userSpaceOnUse" x1="-408" y1="290.28" x2="-408" y2="306.28">
	<stop  offset="0" style="stop-color:#66FFFF"/>
	<stop  offset="0.1428" style="stop-color:#51D9F6"/>
	<stop  offset="0.3948" style="stop-color:#2E9CE8"/>
	<stop  offset="0.6088" style="stop-color:#156FDD"/>
	<stop  offset="0.7738" style="stop-color:#0653D6"/>
	<stop  offset="0.87" style="stop-color:#0049D4"/>
</linearGradient>
<path class="st0" d="M-408,290.3c-1.3,0-2.4,0.8-2.8,2h-1.2c-1.1,0-2,0.9-2,2v10c0,1.1,0.9,2,2,2h8c1.1,0,2-0.9,2-2v-10
	c0-1.1-0.9-2-2-2h-1.2C-405.6,291.1-406.7,290.3-408,290.3z M-408,292.3c0.6,0,1,0.4,1,1s-0.4,1-1,1s-1-0.4-1-1
	S-408.6,292.3-408,292.3z M-411.8,298.8c0-0.4,0.3-0.8,0.8-0.8s0.8,0.3,0.8,0.8s-0.3,0.8-0.8,0.8S-411.8,299.2-411.8,298.8z
	 M-408.5,298.3h4c0.3,0,0.5,0.2,0.5,0.5s-0.2,0.5-0.5,0.5h-4c-0.3,0-0.5-0.2-0.5-0.5S-408.8,298.3-408.5,298.3z M-411.8,301.8
	c0-0.4,0.3-0.8,0.8-0.8s0.8,0.3,0.8,0.8s-0.3,0.8-0.8,0.8S-411.8,302.2-411.8,301.8z M-409,301.8c0-0.3,0.2-0.5,0.5-0.5h4
	c0.3,0,0.5,0.2,0.5,0.5s-0.2,0.5-0.5,0.5h-4C-408.8,302.3-409,302.1-409,301.8z"/>
</svg>
