<?xml version="1.0" encoding="utf-8"?>
<!-- Generator: Adobe Illustrator 19.0.0, SVG Export Plug-In . SVG Version: 6.00 Build 0)  -->
<svg version="1.1" id="Capa_1" xmlns="http://www.w3.org/2000/svg" xmlns:xlink="http://www.w3.org/1999/xlink" x="0px" y="0px"
	 viewBox="-413 290.3 14 16" style="enable-background:new -413 290.3 14 16;" xml:space="preserve">
<style type="text/css">
	.st0{fill:url(#SVGID_1_);stroke:#FFFFFF;stroke-width:0.25;stroke-miterlimit:10;}
</style>
<radialGradient id="SVGID_1_" cx="-405.9973" cy="298.3624" r="7.3432" gradientUnits="userSpaceOnUse">
	<stop  offset="0.1433" style="stop-color:#66FFFF"/>
	<stop  offset="0.1953" style="stop-color:#5BECFA"/>
	<stop  offset="0.3629" style="stop-color:#3BB2ED"/>
	<stop  offset="0.5178" style="stop-color:#2285E2"/>
	<stop  offset="0.655" style="stop-color:#0F64DA"/>
	<stop  offset="0.7693" style="stop-color:#0450D6"/>
	<stop  offset="0.8467" style="stop-color:#0049D4"/>
</radialGradient>
<path class="st0" d="M-401.6,292.9c-0.8-0.8-2-0.8-2.8,0l-5.8,5.8c-1.3,1.3-1.3,3.4,0,4.8c1.3,1.3,3.4,1.3,4.8,0l4.8-4.8
	c0.3-0.3,0.9-0.3,1.2,0c0.3,0.3,0.3,0.9,0,1.2l-4.8,4.8c-2,2-5.2,2-7.2,0s-2-5.2,0-7.2l5.8-5.8c1.4-1.4,3.8-1.4,5.2,0s1.4,3.8,0,5.2
	l-5.5,5.5c-0.9,0.9-2.3,0.9-3.2,0c-0.9-0.9-0.9-2.3,0-3.2l4.5-4.5c0.3-0.3,0.9-0.3,1.2,0c0.3,0.3,0.3,0.9,0,1.2l-4.5,4.5
	c-0.2,0.2-0.2,0.6,0,0.8s0.6,0.2,0.8,0l5.5-5.5C-400.9,294.9-400.9,293.7-401.6,292.9z"/>
</svg>
